/* XPM */
static char *_3217a2e3e9f418c9372d333c758ddfb9B3KSMYNjeequkWN[] = {
/* columns rows colors chars-per-pixel */
"48 48 8 1 ",
"  c #053300",
"j c #073E00",
"a c #0B4F03",
"b c #0C7200",
". c black",
"X c #B35F0E",
"o c #CB8F18",
"O c #FFD145",










"babbbbbbbbbbbbbbbbabbbbbbb   bbabbbbbbbbbbbbbbab",
"babbbbjbbbbbbbbbbbaa      bbbbbabbbbbbbbbbbbbbab",
"aabbbbbbabbb  bbbb  abbbbbbbbbaabbbbbbbbbbbbbbaa",
"bbbbb bbbbbjbb  bbbbbbbbbbbbbbbbbbbbbjbbbbbbbbbb",
"bbbb  bbbabjbbaa  jjbbbaaaaaaaabbbbbbjbbbbbbbbbb",
"bbbb bbaabajbbbbbb   bbbbbbbbbbbbbbbbjbbaabbbbbb",
"abbj babaaa bbbaabbjbbbaaabbbbbbbjbbaajbbabbbbba",
"abb jbabbba jababbbajbb bbbbbbbbjbbbabjbbbbbbbba",
"bbj jabbbba jbbabbbajaab  bbabbbjbbbabjbbbbbbbjb",
"bbj aj bbbbb aabjbbabjbbbb  abbbjbbbjbjbbbbbbjbb",
"bbj ab bbabb bbbjbbbbbjaaaab    jbbjbbjbbbbbbjbb",
"bbjabb jbabb bajabbabaabbbababbj   jbbjbbbbbbjbb",
"bjbbbb jbabb jb...............bjbbjbbbjaaaaabjbb",
"bjbbbb bjabb jb...............bjbbjb bjbbbbbbj b",
"bbbbbb bbjbb jj...............jbbbjb bbbbbbbbj b",
"bbbbbb jbbjb...OOOOOOOOOOOOOOO...jab bbbbbbbbj b",
"bb bbb jbabb...OOOOOOOOOOOOOOO...jab babbbbbjb b",
"aa aa  jabbb...OOOOOOOOOOOOOOO...jab bbababbjb a",
"bb bb  ja...OOOoooooooooOOOoooOOO... bbababjbb b",
"ba ab  ja...OOOoooooooooOOOoooOOO... abababjba b",
"bb bbb ja...OOOoooooooooOOOoooOOO... abababbba b",
"bb bbb jb...OOOooooooOOOooooooOOO... ababbbbba b",
"bb bbb ja...OOOooooooOOOooooooOOO... bbabbbbba b",
"bb abb ja...OOOooooooOOOooooooOOO... baba bbb bb",
"bb bbb j ...XXXoooOOOoooooooooXXX... baba bbb bb",
"bb bbb j ...XXXoooOOOoooooooooXXX... baba bbb bb",
"ab bbb  a...XXXoooOOOoooooooooXXX... baba bjb ba",
"ab bbb abaab...XXXXXXXXXXXXXXX...jbb aaaa bjb aa",
"aba bb bbabj...XXXXXXXXXXXXXXX...aab baaa jbb aa",
"aaa b  abaaj...XXXXXXXXXXXXXXX...bba baba jb bba",
"bbb b  abajbabb............... babbbbaaba jb bbb",
"bbb bb abajbabb............... bbbbbbbabb jb bbb",
"bbb bbjbbbjbabb............... bbbbbbbbbb jbbbbb",
"bbbabbbbbbbbbbjbb abbbba bjbab bbbbbabbbb jbbbbb",
"bbbaabbbbbbbabjb bbbbbbab   ab aabbabbbbb jbbbbb",
"bbbbbbabjbbbabj bbbbbajjjbab b babababbbb babbbb",
"bbbabaabjbbbbb bbbbjjjbabbabab bbbabbaabb bbbbbb",
"bbbabbbjjbbaa ab     aababbbbb bbaabbbbab bbbbbb",
"bbbbabbjbbbbb   bbbabaababbbbb babbbbbbbb bbbbbb",
"bbbbbbbjbbbb jbbabbbbbbbbbbbbb aababbbbbb bbbbb ",
"bbbbbbbjbjbbjbbbaabbbbbbbababb aabbbbbbbb abbbb ",
"bbbbabbbjbbbbbbbbbaabbabaabaaa bbbbbbbjbbabbbbb ",
"bab babbbbbbbbaabbbbabbbbbbaba bbbbbbjbbbaabbba ",
"aab aabbbbbbbbbbbbbbbaaaaaabbbaabbjjjbbbbbabbbaa",
"bbbb babbbbbbbbbjjjjjbbbbbbbbbaabbbbbbbbbabbbbbb",
"aabbb  bbbaabaaaaaabbjjjjjbbaaaaaaaaa  aaaabbbaa",
"babbbbb       bbbbbbbbbbbbbbbbbabbbbbba   bbbbab",
"babbabbbbbbbbbbbbabbbbbaaaabbbbabbbbbbbbbbbbbbab"
};
