/* XPM */
static char *bb3c90b90e74443fabcc74c1a2790122GRdVe9zkecFGSte6[] = {
/* columns rows colors chars-per-pixel */
"38 38 4 1 ",
"  c #3B3643",
". c #79B8CE",
"X c #9BA7AA",
"o c white",
/* pixels */
"..XXXoooooooooooooooooooooooooooooXX..",
".XXoooooooooooooooooooooooooooXooooXX.",
"XXooooooooooooooooooooooooooooXXooooXX",
"XooooXXooooooooooooooooooooooXXXoooooX",
"XoooXXXoooooooooooooooooooooXXXXoooooX",
"ooooXXXoooooooooooooooooooooXXXXoooooo",
"oooooXXXooooooooooooooooooooXXXooooooo",
"oooooXXXoooooooooooooooooooooXXooooooo",
"ooooXXXoooooooooooooooooooooooXooooooo",
"oooooooooooooooooooooooooooooooooooooo",
"ooooooooooooooooo  ooooooooooooooooooo",
"oooooooooooooooo    oooooooooooooooooo",
"ooooooooooooooo      ooooooooooooooooo",
"ooooooooooooooo      ooooooooooooooooo",
"ooooooooooooooo      ooooooooooooooooo",
"ooooooooooooooo      ooooooooooooooooo",
"ooooooooooooooo      ooooooooooooooooo",
"oooooooooooooooo    oooooooooooooooooo",
"ooooooooooooooooo  ooooo   ooooooooooo",
"oooooooooo   oooooooooo     oooooooooo",
"ooooooooo     oooooooo       ooooooooo",
"Xooooooo       ooooooo       ooooooooX",
"Xooooooo       ooooooo       ooooooooX",
"Xooooooo       oooooooo     ooooooooXX",
"XXooooooo     oooooooooo   oooooooooXX",
"XXoooooooo   ooooooooooooooooooooooXXX",
"XXXoooooooooooooooooooooooooooooooXXXX",
"oXXXoooooooooooooooooooooooooooooXXXXo",
"ooXXXoooooooooooooooooooooooooooXXXXoo",
"oooXXXooooooooooooooooooooooooXXXXXooo",
"ooooXXXXooooooooooooooooooooXXXXXXoooo",
"oooooXXXXXXoooooooooooooooXXXXXXXooooo",
"ooooooXXXXXXXXXXXXXXXXXXXXXXXXXooooooo",
"XoooooooXXXXXXXXXXXXXXXXXXXXXooooooooX",
"XoooooooooooXXXXXXXXXXXXXXoooooooooooX",
"XXooooooooooooooooooooooooooooooooooXX",
".XXooooooooooooooooooooooooooooooooXX.",
"..XXXooooooooooooooooooooooooooooXXX.."
};
