/* XPM */
static char *_12ccfbc55804ec0db5a433cbf89c80bgjfdi8EtjooOJYNe[] = {
/* columns rows colors chars-per-pixel */
"48 48 14 1 ",
"  c #053300",
"j c #073E00",
"a c #0B4F03",
"b c #0C7200",
"- c #141B1B",
". c #5C2D25",
"X c #3B3643",
"o c #4E484A",
"O c #91522C",
"+ c #D14B34",
"@ c #A3754E",
"# c #EF914F",
"$ c #ABC2BC",
"% c #F2EAF1",
/* pixels */



"babbbbbbbbbbbbbbbbabbbbbbb   bbabbbbbbbbbbbbbbab",
"babbbbjbbbbbbbbbbbaa      bbbbbabbbbbbbbbbbbbbab",
"aabbbbbbabbb  bbbb  abbbbbbbbbaabbbbbbbbbbbbbbaa",
"bbbbb bbbbbjbb  bbbbbbbbbbbbbbbbbbbbbjbbbbbbbbbb",
"bbbb  bbbabjbbaa  jjbbbaaaaaaaabbbbbbjbbbbbbbbbb",
"bbbb bbaabajbbbbbb   bbbbbbbbbbbbbbbbjbbaabbbbbb",
"abbj babaaa bbbaabbjbbbaaabbbbbbbjbbaajbbabbbbba",
"abb jbabbba jababbbajbb bbbbbbbbjbbbabjbbbbbbbba",
"bbj jabbbba jbbab%%%%%%%% b%%%%%%%bbabjbbbbbbbjb",
"bbj aj bbbbb aab@@@@@@@@@@@@@%%%%%%bjbjbbbbbbjbb",
"bbj ab bbabb bb@@@@@@@@@@@@@@@@@%%%%bbjbbbbbbjbb",
"bbjabb jbabb b@@%%%%%%%%%%%%%@@@@@@$$bjbbbbbbjbb",
"bjbbbb jbabb @@%%%%%%%%%%%%%%%%%@@@@$bjaaaaabjbb",
"bjbbbb bjabb $$$$$$$$$$$$$$$$$$%%%@@@bjbbbbbbj b",
"bbbbbb bbjbb$$$$$$$$$$$$$$$$$$$$$%%%@@bbbbbbbj b",
"bbbbbb jbbj$$$$$$$$$$$$$$$$$$$$$$$%%%@bbbbbbbj b",
"bb bbb jba$$$$$...............$$$$$$%%@bbbbbjb b",
"aa aa  ja$$$$........+++++.......$$$$%%ababbjb a",
"bb bb  ja$$$..------.+++-------...$$$%%%babjbb b",
"ba ab  j$$$..--XX---------------...$$$%%babjba b",
"bb bbb j$$$.---XXX------XXX------...$$$%%abbba b",
"bb bbb j$$$.---XXXX--+++XXXX------...$$%%bbbba b",
"bb bbb j$$$..+--XXX--+++XXXXX--++--...$%%bbbba b",
"bb abb j$$$..+----++####+XXXXX-+++--..$$% bbb bb",
"bb bbb j $$..+#--+########XX--#+++.-..$$% bbb bb",
"bb bbb j a+..+###+#############++...++$$a bbb bb",
"ab bbb  ab++.+###############+##+..++++ba bjb ba",
"ab bbb aba++.++#############+##+..+++++aa bjb aa",
"aba bb bbab+++#+##-----####+##++++++..+aa jbb aa",
"aaa b  abaa+++#+#-#####-##+###+++++.+++ba jb bba",
"bbb b  abajbab############+##+++++++++aba jb bbb",
"bbb bb abajbab++############+++++bbbbbabb jb bbb",
"bbb bbjbbbjbabb++#########++++++bbbbbbbbb jbbbbb",
"bbbabbbbbbbbbbjbb+++++++++++++ bbbbbabbbb jbbbbb",
"bbbaabbbb@@@@@@OO-+++++++++..--OOOOabbbbb jbbbbb",
"bbbbbbabj@@@@OOOOO---.....----OOOOObabbbb babbbb",
"bbbabaabjO@@@@OOOO---...---@@@OOO--@@@@@b bbbbbb",
"bbbabbbjjbO@@@OOOOO------@@@@OOO-@@@@@@@@@bbbbbb",
"bbbbabb@@O--O@@OOOOO-XX-@@OOOOO@@@@@@@@@@@@bbbbb",
"bbbbb@@@@OOO-OO@OOOOoo-@OOOOOO@@@@@@@@@@@@@bbbb ",
"bbbbb@@@OOOOOOOOOOOOoo@OOOOOOOOOOOOOO@@@@@@bbbb ",
"bbbba@@OOOOOOOOOOOOOXXOOOOOOOOOOOOOOOOOO@@@bbbb ",
"bab bOOOOOOOOOOOOOOOXXOOOOOOOOOOOOOOOOOOOOObbba "
"aab aabbbbbbbbbbbbbbbaaaaaabbbaabbjjjbbbbbabbbaa",
"bbbb babbbbbbbbbjjjjjbbbbbbbbbaabbbbbbbbbabbbbbb",
"aabbb  bbbaabaaaaaabbjjjjjbbaaaaaaaaa  aaaabbbaa",
"babbbbb       bbbbbbbbbbbbbbbbbabbbbbba   bbbbab",
"babbabbbbbbbbbbbbabbbbbaaaabbbbabbbbbbbbbbbbbbab",
};
