/* XPM */
static char *c47500884b6840c992c46fdbaa4b2291cLy8P0hAu6oBvwbJ[] = {
/* columns rows colors chars-per-pixel */
"48 48 12 1 ",
"  c #053300",
"j c #073E00",
"a c #0B4F03",
"b c #0C7200",
". c black",
"X c gray5",
"o c #342214",
"O c #4C2E19",
"+ c #714627",
"@ c #885F33",
"# c #9B6742",
"$ c #BB7B4D",
/* pixels */





"babbbbbbbbbbbbbbbbabbbbbbb   bbabbbbbbbbbbbbbbab",
"babbbbjbbbbbbbbbbbaa      bbbbbabbbbbbbbbbbbbbab",
"aabbbbbbabbb  bbbb  abbbbbbbbbaabbbbbbbbbbbbbbaa",
"bbbbb bbbbbjbb  bbbbbbbbbbb...............bbbbbb",
"bbbb  bbbabjbbaa  jjbbbaaaa...............bbbbbb",
"bbbb bbaabajbbbbbb   bbbbbb...............bbbbbb",
"abbj babaaa ......bjbbbaXXX######$$$$$$@@@...bba",
"abb jbabbba ......bajbb XXX######$$$$$$@@@...bba",
"bbj jabbbba ......bajaabXXX######$$$$$$@@@...bjb",
"bbj aj bb...$$$$$$...XXX######$$$$$$@@@@@@+++...",
"bbj ab bb...$$$$$$...XXX######$$$$$$@@@@@@+++...",
"bbjabb jb...$$$$$$...XXX######$$$$$$@@@@@@+++...",
"bjbbbb jbabb...++++++OOO###$$$$$$@@@@@@++++++...",
"bjbbbb bjabb...++++++OOO###$$$$$$@@@@@@++++++...",
"bbbbbb bbjbb...++++++OOO###$$$$$$@@@@@@++++++...",
"bbbbbb jbbjb jjXXX######$$$$$$@@@@@@+++++++++...",
"bb bbb jbabb jjXXX######$$$$$$@@@@@@+++++++++...",
"aa aa  jabbb jjXXX######$$$$$$@@@@@@+++++++++...",
"bb bb  jab  XXX###$$$$$$$$$@@@@@@+++++++++oooXXX",
"ba ab  jababXXX###$$$$$$$$$@@@@@@+++++++++oooXXX",
"bb bbb jaba XXX###$$$$$$$$$@@@@@@+++++++++oooXXX",
"bb bbb jbXXXOOOOOOOOO$$$@@@@@@+++++++++oooXXXa b",
"bb bbb jaXXXOOOOOOOOO$$$@@@@@@+++++++++oooXXXa b",
"bb abb jaXXXOOOOOOOOO$$$@@@@@@+++++++++oooXXX bb",
"bb bbbXXX######$$$$$$OOO@@@+++++++++oooXXXbbb bb",
"bb bbbXXX######$$$$$$OOO@@@+++++++++oooXXXbbb bb",
"ab bbbXXX######$$$$$$OOO@@@+++++++++oooXXXbjb ba",
"ab XXX$$$$$$OOOOOO$$$$$$OOO++++++oooXXXaa bjb aa",
"abaXXX$$$$$$OOOOOO$$$$$$OOO++++++oooXXXaa jbb aa",
"aaaXXX$$$$$$OOOOOO$$$$$$OOO++++++oooXXXba jb bba",
"bbbXXX$$$OOO$$$$$$OOO$$$OOO+++oooXXXbaaba jb bbb",
"bbbXXX$$$OOO$$$$$$OOO$$$OOO+++oooXXXbbabb jb bbb",
"bbbXXX$$$OOO$$$$$$OOO$$$OOO+++oooXXXbbbbb jbbbbb",
"bbbXXX$$$OOO$$$$$$OOO+++OOOoooXXXbbbabbbb jbbbbb",
"bbbXXX$$$OOO$$$$$$OOO+++OOOoooXXXbbabbbbb jbbbbb",
"bbbXXX$$$OOO$$$$$$OOO+++OOOoooXXXbababbbb babbbb",
"bbbXXX$$$$$$OOOOOO++++++oooXXX bbbabbaabb bbbbbb",
"bbbXXX$$$$$$OOOOOO++++++oooXXX bbaabbbbab bbbbbb",
"bbbXXX$$$$$$OOOOOO++++++oooXXX babbbbbbbb bbbbbb",
"bbbbbbXXX++++++++++++OOOXXXbbb aababbbbbb bbbbb ",
"bbbbbbXXX++++++++++++OOOXXXabb aabbbbbbbb abbbb ",
"bbbbabXXX++++++++++++OOOXXXaaa bbbbbbbjbbabbbbb ",
"bab babbbXXXXXXXXXXXXXXXbbbaba bbbbbbjbbbaabbba ",
"aab aabbbXXXXXXXXXXXXXXXaaabbbaabbjjjbbbbbabbbaa",
"bbbb babbXXXXXXXXXXXXXXXbbbbbbaabbbbbbbbbabbbbbb",
"aabbb  bbbaabaaaaaabbjjjjjbbaaaaaaaaa  aaaabbbaa",
"babbbbb       bbbbbbbbbbbbbbbbbabbbbbba   bbbbab",
"babbabbbbbbbbbbbbabbbbbaaaabbbbabbbbbbbbbbbbbbab"
};
